<svg width="56" height="57" viewBox="0 0 56 57" fill="none" xmlns="http://www.w3.org/2000/svg">
<path fill-rule="evenodd" clip-rule="evenodd" d="M28.1072 56.2272C43.4096 56.2272 55.8146 43.8222 55.8146 28.5198C55.8146 13.2175 43.4096 0.8125 28.1072 0.8125C12.8049 0.8125 0.399902 13.2175 0.399902 28.5198C0.399902 43.8222 12.8049 56.2272 28.1072 56.2272ZM29.3859 16.3183H32.1896V45.1565H37.797V11.9125H29.3859C20.9748 11.9125 16.5689 16.3183 16.5689 22.7268C16.5689 27.9337 18.9721 30.7374 23.3779 33.9416L15.7679 45.1565H22.1764L30.187 32.74L27.3833 30.7374C23.7785 28.3342 22.1764 26.3315 22.1764 22.3262C22.1764 18.7215 24.5795 16.3183 29.3859 16.3183Z" fill="#121212"/>
</svg>
