<?xml version="1.0" standalone="no"?>
<!DOCTYPE svg PUBLIC "-//W3C//DTD SVG 20010904//EN"
 "http://www.w3.org/TR/2001/REC-SVG-20010904/DTD/svg10.dtd">
<svg version="1.0" xmlns="http://www.w3.org/2000/svg"
 width="912.000000pt" height="912.000000pt" viewBox="0 0 912.000000 912.000000"
 preserveAspectRatio="xMidYMid meet">
<metadata>
Created by potrace 1.14, written by Peter Selinger 2001-2017
</metadata>
<g transform="translate(0.000000,912.000000) scale(0.100000,-0.100000)"
fill="#000000" stroke="none">
<path d="M4339 8986 c-2 -2 -51 -7 -109 -11 -132 -10 -201 -17 -275 -29 -16
-2 -50 -7 -75 -11 -25 -3 -79 -13 -120 -22 -41 -8 -86 -16 -100 -18 -14 -2
-40 -9 -59 -14 -18 -6 -36 -10 -40 -9 -3 0 -8 -1 -11 -2 -6 -2 -26 -7 -60 -14
-76 -17 -394 -115 -455 -141 -65 -27 -100 -40 -107 -37 -5 1 -8 -3 -8 -8 0 -6
-8 -10 -18 -10 -10 0 -22 -3 -26 -7 -4 -5 -11 -8 -14 -9 -11 -1 -54 -20 -148
-65 -49 -23 -91 -43 -94 -44 -10 -2 -154 -79 -235 -125 -22 -12 -57 -32 -77
-42 -21 -11 -38 -24 -38 -29 0 -5 -5 -9 -11 -9 -14 0 -213 -129 -217 -141 -2
-5 -8 -9 -13 -9 -5 0 -38 -21 -72 -47 -35 -27 -78 -59 -96 -73 -19 -14 -42
-32 -53 -42 -10 -9 -38 -31 -60 -50 -47 -37 -61 -50 -149 -128 -117 -105 -286
-280 -397 -410 -16 -19 -46 -54 -66 -76 -20 -23 -36 -47 -36 -53 0 -6 -4 -11
-8 -11 -4 0 -25 -25 -47 -56 -22 -30 -48 -65 -58 -77 -10 -12 -26 -34 -35 -49
-9 -16 -20 -28 -24 -28 -4 0 -8 -4 -8 -10 0 -5 -24 -45 -52 -88 -69 -103 -66
-97 -151 -247 -40 -71 -80 -145 -88 -162 -8 -18 -17 -33 -21 -33 -5 0 -7 -3
-6 -7 1 -5 -10 -32 -25 -62 -15 -30 -27 -59 -27 -65 0 -5 -7 -17 -15 -26 -8
-9 -16 -25 -18 -36 -1 -10 -5 -24 -9 -29 -3 -6 -24 -55 -46 -110 -22 -55 -43
-109 -47 -120 -5 -11 -9 -22 -10 -25 0 -3 -17 -54 -38 -115 -32 -99 -72 -230
-82 -278 -2 -9 -11 -45 -20 -80 -9 -34 -18 -71 -19 -82 -2 -11 -6 -29 -9 -40
-4 -11 -9 -37 -11 -59 -3 -21 -8 -46 -10 -55 -3 -9 -8 -34 -11 -56 -4 -22 -8
-53 -11 -70 -13 -81 -29 -232 -40 -380 -9 -119 -9 -443 0 -575 11 -152 22
-269 30 -310 2 -14 7 -47 11 -74 3 -27 8 -52 10 -55 2 -3 6 -29 9 -57 3 -28 8
-57 10 -65 5 -14 14 -55 21 -94 6 -39 14 -71 40 -170 15 -55 28 -107 30 -115
2 -8 16 -53 31 -100 15 -47 28 -88 28 -92 1 -3 4 -10 9 -14 4 -4 7 -16 7 -26
0 -10 5 -26 10 -36 6 -9 26 -57 44 -107 19 -49 48 -122 65 -161 57 -138 231
-473 267 -514 7 -8 13 -18 13 -23 1 -16 164 -257 174 -257 6 0 8 -3 4 -6 -6
-6 93 -142 128 -178 9 -9 14 -16 11 -16 -3 0 2 -8 11 -18 10 -10 34 -37 53
-61 97 -120 349 -378 485 -497 119 -105 263 -217 375 -294 36 -25 67 -48 70
-51 10 -11 265 -166 340 -206 114 -62 339 -173 360 -178 3 -1 25 -11 50 -22
25 -11 63 -26 85 -34 22 -8 43 -18 46 -22 3 -5 8 -7 10 -6 4 3 114 -33 154
-51 48 -21 387 -116 480 -134 17 -3 63 -12 103 -20 40 -9 92 -18 115 -21 23
-3 51 -8 62 -10 30 -5 116 -17 150 -20 17 -2 53 -6 80 -9 131 -14 236 -19 415
-20 223 0 390 9 548 29 23 3 63 8 90 11 26 3 58 8 72 10 14 3 41 7 60 10 37 4
75 11 75 14 0 1 13 3 30 5 16 2 50 9 75 15 25 6 56 13 70 16 38 8 55 12 55 14
0 1 11 3 25 5 14 2 72 18 130 35 58 17 112 33 120 35 8 2 17 4 20 5 3 1 9 2
14 1 4 -1 13 2 20 7 6 5 43 20 81 32 39 12 75 25 80 29 6 3 19 7 29 8 11 2 24
7 30 12 6 5 38 18 70 30 56 21 88 35 233 103 35 16 66 29 70 30 5 0 19 8 33
17 14 9 48 27 75 41 28 14 52 28 55 31 3 3 19 12 35 21 40 20 94 51 144 82 22
15 43 26 46 26 3 0 15 9 27 20 12 11 28 20 35 20 7 0 13 4 13 8 0 5 16 17 35
28 19 10 35 22 35 26 0 5 6 8 13 8 7 0 22 8 33 17 11 10 42 34 69 53 28 19 57
40 65 47 8 6 51 41 95 76 44 35 93 76 108 91 15 14 30 26 32 26 12 0 266 249
369 363 67 74 77 85 136 157 19 24 41 49 48 56 6 7 12 17 12 22 0 6 3 12 8 14
11 5 112 137 112 147 0 5 4 11 8 13 16 6 227 334 253 391 5 12 23 47 40 77 59
104 89 164 89 177 0 7 5 13 10 13 6 0 10 5 10 11 0 5 10 31 21 57 28 61 58
130 60 140 1 4 15 35 30 70 16 34 26 62 22 62 -3 0 -1 6 4 13 9 10 33 73 39
100 1 4 3 9 4 12 1 3 3 8 4 13 1 4 19 59 39 122 31 99 41 136 63 220 9 33 46
196 49 215 2 11 6 36 10 55 4 19 9 49 11 65 4 32 12 70 14 70 0 0 3 18 5 40 2
22 6 59 9 83 26 188 30 270 30 552 0 247 -7 418 -19 490 -3 14 -7 50 -10 80
-4 30 -8 62 -10 70 -4 13 -10 54 -20 130 -1 8 -5 31 -9 50 -4 19 -8 42 -10 50
-12 66 -22 108 -43 190 -14 52 -27 108 -29 124 -2 16 -9 35 -15 42 -6 8 -9 14
-6 14 3 0 -5 30 -17 68 -13 37 -23 69 -24 72 -2 14 -49 150 -67 195 -59 148
-140 331 -149 337 -6 4 -8 8 -4 8 8 0 -76 166 -126 250 -15 25 -29 53 -33 63
-3 9 -9 17 -14 17 -5 0 -9 6 -9 13 0 15 -178 291 -191 295 -5 2 -9 8 -9 13 0
7 -111 160 -130 179 -3 3 -21 25 -41 50 -104 128 -148 177 -304 334 -160 160
-191 189 -313 288 -42 35 -79 65 -82 68 -3 3 -41 32 -85 65 -44 33 -83 65 -87
70 -5 7 -8 7 -8 0 0 -6 -3 -6 -8 1 -7 11 -187 134 -196 134 -2 0 -32 18 -65
40 -33 22 -64 40 -70 40 -5 0 -11 3 -13 8 -3 6 -97 58 -193 106 -22 11 -41 24
-43 28 -2 4 -10 8 -17 8 -7 0 -40 14 -74 30 -60 30 -97 46 -116 50 -5 1 -14 5
-20 10 -20 16 -351 141 -410 154 -5 1 -44 13 -85 25 -182 56 -463 118 -620
136 -14 2 -25 4 -25 5 0 1 -37 5 -147 14 -37 3 -85 8 -105 12 -40 6 -588 15
-594 10z m1782 -1775 c6 -1 10 -5263 4 -5296 -4 -20 -11 -20 -437 -19 -238 1
-440 2 -448 3 -13 1 -15 263 -12 2306 l2 2306 -327 -5 c-311 -4 -356 -6 -428
-20 -16 -4 -44 -9 -62 -12 -17 -3 -61 -13 -97 -24 -35 -10 -67 -16 -70 -12 -3
3 -6 0 -6 -6 0 -7 -7 -12 -16 -12 -26 0 -182 -80 -244 -126 -85 -62 -170 -154
-220 -237 -24 -39 -43 -78 -43 -84 0 -7 -3 -13 -7 -13 -6 0 -48 -126 -56 -165
-20 -105 -23 -137 -23 -260 0 -245 33 -424 110 -592 16 -35 29 -68 29 -73 0
-6 3 -10 8 -10 4 0 13 -15 21 -32 8 -18 17 -35 21 -38 3 -3 26 -34 52 -70 48
-68 154 -181 248 -263 67 -59 172 -136 490 -362 135 -96 252 -179 260 -185 8
-6 21 -14 28 -19 10 -6 -1 -29 -45 -97 -31 -49 -62 -96 -68 -106 -42 -68 -110
-174 -115 -178 -3 -3 -17 -23 -30 -45 -13 -22 -70 -110 -125 -195 -56 -85
-104 -163 -108 -172 -3 -10 -11 -18 -17 -18 -6 0 -9 -4 -6 -9 3 -4 -3 -16 -14
-26 -11 -10 -20 -22 -20 -26 0 -8 -150 -243 -170 -266 -5 -7 -15 -24 -22 -38
-6 -14 -15 -25 -20 -25 -4 0 -8 -5 -8 -10 0 -12 -92 -153 -102 -158 -5 -2 -8
-8 -8 -13 0 -5 -43 -74 -95 -154 -52 -80 -95 -150 -95 -155 0 -5 -6 -13 -13
-17 -7 -4 -25 -28 -39 -53 -14 -25 -51 -84 -82 -130 -31 -47 -57 -89 -59 -95
-4 -11 -1027 -15 -1027 -4 0 3 18 31 40 63 22 31 40 61 40 66 0 4 3 10 8 12 4
2 34 44 67 93 33 50 62 92 65 95 5 4 95 137 301 445 30 44 56 82 59 85 3 3 31
45 64 94 32 49 63 94 68 100 5 6 19 26 31 45 46 72 229 343 237 351 3 3 45 66
95 140 49 74 92 137 95 140 30 28 42 80 19 80 -5 0 -33 18 -62 40 -29 22 -56
44 -62 48 -36 26 -121 98 -123 105 -2 4 -8 7 -13 7 -5 0 -17 8 -27 18 -10 9
-47 42 -82 72 -60 52 -159 148 -241 236 -30 32 -80 96 -182 235 -12 16 -31 49
-76 134 -14 28 -30 53 -36 57 -5 4 -7 8 -3 8 4 0 -6 28 -22 63 -24 54 -65 173
-75 217 -1 8 -8 33 -13 55 -6 22 -14 60 -17 85 -4 24 -8 47 -10 50 -18 29 -26
434 -12 570 37 349 191 703 399 913 21 21 38 43 38 48 0 5 4 9 8 9 4 0 23 15
42 33 53 50 159 131 220 168 30 18 57 36 60 39 3 3 52 28 110 56 109 53 289
121 367 139 10 2 56 14 103 25 47 12 97 23 113 26 60 9 156 22 231 30 17 2 78
6 136 10 58 3 106 7 107 8 1 1 1434 -2 1444 -3z"/>
</g>
</svg>
