<svg > 
  <symbol id="logo" width="266" height="60" viewBox="0 0 266 60" fill="none" xmlns="http://www.w3.org/2000/svg">
    <path fill-rule="evenodd" clip-rule="evenodd" d="M28.1072 57.2272C43.4096 57.2272 55.8146 44.8222 55.8146 29.5198C55.8146 14.2175 43.4096 1.8125 28.1072 1.8125C12.8049 1.8125 0.399902 14.2175 0.399902 29.5198C0.399902 44.8222 12.8049 57.2272 28.1072 57.2272ZM29.3859 17.3183H32.1896V46.1565H37.797V12.9125H29.3859C20.9748 12.9125 16.5689 17.3183 16.5689 23.7268C16.5689 28.9337 18.9721 31.7374 23.3779 34.9416L15.7679 46.1565H22.1764L30.187 33.74L27.3833 31.7374C23.7785 29.3342 22.1764 27.3315 22.1764 23.3262C22.1764 19.7215 24.5795 17.3183 29.3859 17.3183Z" fill="#121212"/>
    <path d="M86.0162 50.598C90.4935 50.598 93.5381 48.9861 95.3887 47.7325V41.9418C93.0008 43.6731 90.3741 44.9864 86.5535 44.9864C79.9867 44.9864 76.8825 39.6733 76.8825 29.286C76.8825 18.6001 79.8674 13.5259 86.9116 13.5259C90.195 13.5259 93.2396 14.9586 95.3887 16.3316V10.541C93.4784 9.16795 90.3741 7.9143 86.5535 7.9143C75.5094 7.9143 69.5397 16.0332 69.5397 29.286C69.5397 42.897 75.7482 50.598 86.0162 50.598ZM119.579 25.5847V19.9732H95.7599V25.5847H104.118V50.001H111.222V25.5847H119.579ZM144.424 29.5248C144.424 22.2417 140.723 19.4956 133.201 19.4956C128.485 19.4956 124.784 20.988 122.634 22.2417V28.1517C124.545 26.719 128.724 25.1669 132.365 25.1669C135.768 25.1669 137.32 26.3608 137.32 29.5845V31.256H136.186C125.321 31.256 120.485 34.8378 120.485 40.927C120.485 47.0161 124.187 50.4189 129.679 50.4189C133.858 50.4189 135.649 49.0458 137.022 47.6131H137.32C137.38 48.3891 137.619 49.404 137.857 50.001H144.782C144.543 47.5534 144.424 45.1058 144.424 42.6582V29.5248ZM137.32 42.8373C136.425 44.1506 134.753 45.2252 132.246 45.2252C129.261 45.2252 127.768 43.4343 127.768 40.7479C127.768 37.2257 130.216 35.9721 136.305 35.9721H137.32V42.8373ZM166.732 19.9732V31.853H157.24V19.9732H150.136V50.001H157.24V37.4645H166.732V50.001H173.836V19.9732H166.732ZM179.81 50.001H199.808V56.8662H206.375V44.3894H203.211V19.9732H196.107V44.3894H186.914V19.9732H179.81V50.001ZM210.125 19.9732V50.001H216.274L227.258 31.4351V50.001H234.183V19.9732H228.034L217.05 38.5391V19.9732H210.125ZM238.059 50.001H245.342L251.073 40.2106H254.476V50.001H261.58V19.9732H250.715C243.79 19.9732 238.835 23.4953 238.835 29.9426C238.835 34.4797 240.984 37.3451 244.805 38.6585L238.059 50.001ZM251.252 25.5847H254.476V35.0169H251.073C247.849 35.0169 246.058 33.6439 246.058 30.1814C246.058 26.8981 248.148 25.5847 251.252 25.5847Z" fill="#121212"/>
  </symbol>
  <symbol id="aliceLogo" width="79" height="79" viewBox="0 0 79 79" fill="none" xmlns="http://www.w3.org/2000/svg">
    <path fill-rule="evenodd" clip-rule="evenodd" d="M39.521 78.1421C60.906 78.1421 78.2419 60.8061 78.2419 39.4211C78.2419 18.0362 60.906 0.700195 39.521 0.700195C18.136 0.700195 0.800049 18.0362 0.800049 39.4211C0.800049 60.8061 18.136 78.1421 39.521 78.1421ZM39.472 57.7708C30.8552 57.7359 22.4013 55.8625 19.2283 52.7343C11.342 44.9706 30.5076 15.2096 39.4809 15.166C48.4321 15.2096 67.5977 44.9706 59.7114 52.7343C56.5428 55.8625 48.0889 57.7359 39.472 57.7708Z" fill="black"/>
  </symbol>
  <symbol id="volna" width="74" height="71" viewBox="0 0 74 71" fill="none" xmlns="http://www.w3.org/2000/svg">
    <path d="M2.5 45.1501C6.41 45.1501 6.40997 68.1501 10.09 68.1501C14 68.1501 10.32 2.6001 14 2.6001C17.68 2.6001 21.59 68.1501 25.27 68.1501C29.18 68.1501 29.18 16.4001 32.86 16.4001C36.77 16.4001 36.77 68.1501 40.45 68.1501C44.36 68.1501 44.36 30.2001 48.04 30.2001C51.95 30.2001 51.95 68.1501 55.63 68.1501C59.54 68.1501 59.54 45.1501 63.22 45.1501C67.13 45.1501 67.13 68.1501 70.81 68.1501" stroke="black" stroke-width="4.6" stroke-miterlimit="10" stroke-linecap="round" stroke-linejoin="round"/>
  </symbol>

</svg>